<svg width="100" height="90" viewBox="0 0 100 90" fill="none" xmlns="http://www.w3.org/2000/svg">
<path d="M74.4383 85.7846C74.4383 76.503 82.4343 75.9949 85.6972 77.3002C89.4135 78.7868 86.4149 84.8619 83.4207 87.1679C78.2879 90.4886 74.4383 89.9355 74.4383 85.7846Z" fill="#C58A3F"/>
<path d="M2.5786 84.4011C6.85597 84.4011 22.5192 77.3002 21.7759 73.332C18.354 63.6467 12.8443 24.9053 23.1099 23.5215C28.5262 22.3536 23.8472 51.9477 24.604 63.531C24.789 66.3624 27.98 65.4969 27.8636 63.2998C27.8603 63.2593 27.857 63.2187 27.8538 63.178C26.578 46.9441 33.0949 17.6057 43.6413 8.30157C44.9245 7.37916 47.2343 6.3645 46.2077 9.6852C42.5055 17.2699 35.4068 34.5289 32.8989 49.7991C32.6705 51.2476 32.5864 53.5727 34.0778 51.2857C41.1588 32.259 53.8038 2.00841 60.323 0C61.6062 0 63.4027 1.38363 60.323 6.91814C54.3034 19.5579 44.2087 41.6929 39.3783 52.7722C38.9936 53.992 39.7047 57.6321 41.8442 55.002C50.1028 43.9941 62.3195 27.0062 73.1551 22.138C77.0048 20.2932 82.1376 20.7544 69.3055 33.2071L47.4909 55.3451L45.4952 57.9751L44.1986 59.6839C42.5411 62.5058 43.9281 64.3791 47.0471 62.8887C60.3903 53.7652 79.6626 41.5088 91.1201 41.5088C94.1142 41.97 97.5361 44.2761 85.9872 48.427C74.4383 53.5003 52.6238 65.0303 38.5085 73.332C29.526 77.4829 15.4107 87.1685 3.86181 89.9358C0.221021 90.679 -2.00877 84.7329 2.5786 84.4011Z" fill="#A9B28B"/>
<path d="M30.8259 82.4817C38.511 74.1647 62.3524 58.621 96.2365 62.9818C100.943 63.8952 103.941 66.2881 78.281 68.5519C69.3002 69.4921 49.8004 72.4824 43.6485 76.922C50.0638 76.4482 63.6652 76.0524 66.7486 78.2601C69.8321 80.4678 69.3452 81.7598 68.0389 82.4082C67.3791 82.5836 65.4269 82.5762 62.9841 82.4182L62.906 82.4184L62.711 82.4001C61.3327 82.306 59.8119 82.1658 58.2865 81.9849C48.9485 81.2065 35.1572 80.6035 30.8259 82.4817Z" fill="#A9B28B"/>
</svg>
